<svg xmlns="http://www.w3.org/2000/svg" width="1600" height="1000" font-family="Inter, Segoe UI, Helvetica, Arial, sans-serif" viewBox="0 0 1600 1000"><defs><linearGradient id="roofg" x1="0" x2="0" y1="0" y2="1"><stop offset="0" stop-color="#fff"/><stop offset="1" stop-color="#f3f5f7"/></linearGradient><linearGradient id="poolg" x1="0" x2="1" y1="0" y2="1"><stop offset="0" stop-color="#3fb3e0"/><stop offset="1" stop-color="#1f93c4"/></linearGradient><pattern id="hatch" width="14" height="14" patternTransform="rotate(45)" patternUnits="userSpaceOnUse"><rect width="14" height="14" fill="none"/><line x1="0" x2="0" y1="0" y2="14" stroke="#fff" stroke-width="5"/></pattern></defs><rect width="1600" height="1000" fill="#dfe6ee"/><rect width="1564" height="964" x="18" y="18" fill="#5b6068" rx="26"/><rect width="1564" height="60" x="18" y="18" fill="#6b9d49" rx="24"/><rect width="1564" height="42" x="18" y="940" fill="#6b9d49" rx="22"/><rect width="62" height="964" x="18" y="18" fill="#6b9d49" rx="24"/><rect width="62" height="964" x="1520" y="18" fill="#6b9d49" rx="24"/><rect width="66" height="810" x="1450" y="80" fill="#78ab55" rx="14"/><circle cx="78" cy="51" r="15" fill="#3c6b2d" opacity=".5"/><circle cx="78" cy="48" r="15" fill="#4f8f3b"/><circle cx="74" cy="44" r="8" fill="#6fb04c"/><circle cx="78" cy="964" r="13" fill="#3c6b2d" opacity=".5"/><circle cx="78" cy="961" r="13" fill="#4f8f3b"/><circle cx="74" cy="957" r="7" fill="#6fb04c"/><circle cx="130" cy="51" r="15" fill="#3c6b2d" opacity=".5"/><circle cx="130" cy="48" r="15" fill="#4f8f3b"/><circle cx="126" cy="44" r="8" fill="#6fb04c"/><circle cx="130" cy="964" r="13" fill="#3c6b2d" opacity=".5"/><circle cx="130" cy="961" r="13" fill="#4f8f3b"/><circle cx="126" cy="957" r="7" fill="#6fb04c"/><circle cx="182" cy="51" r="15" fill="#3c6b2d" opacity=".5"/><circle cx="182" cy="48" r="15" fill="#4f8f3b"/><circle cx="178" cy="44" r="8" fill="#6fb04c"/><circle cx="182" cy="964" r="13" fill="#3c6b2d" opacity=".5"/><circle cx="182" cy="961" r="13" fill="#4f8f3b"/><circle cx="178" cy="957" r="7" fill="#6fb04c"/><circle cx="234" cy="51" r="15" fill="#3c6b2d" opacity=".5"/><circle cx="234" cy="48" r="15" fill="#4f8f3b"/><circle cx="230" cy="44" r="8" fill="#6fb04c"/><circle cx="234" cy="964" r="13" fill="#3c6b2d" opacity=".5"/><circle cx="234" cy="961" r="13" fill="#4f8f3b"/><circle cx="230" cy="957" r="7" fill="#6fb04c"/><circle cx="286" cy="51" r="15" fill="#3c6b2d" opacity=".5"/><circle cx="286" cy="48" r="15" fill="#4f8f3b"/><circle cx="282" cy="44" r="8" fill="#6fb04c"/><circle cx="286" cy="964" r="13" fill="#3c6b2d" opacity=".5"/><circle cx="286" cy="961" r="13" fill="#4f8f3b"/><circle cx="282" cy="957" r="7" fill="#6fb04c"/><circle cx="338" cy="51" r="15" fill="#3c6b2d" opacity=".5"/><circle cx="338" cy="48" r="15" fill="#4f8f3b"/><circle cx="334" cy="44" r="8" fill="#6fb04c"/><circle cx="338" cy="964" r="13" fill="#3c6b2d" opacity=".5"/><circle cx="338" cy="961" r="13" fill="#4f8f3b"/><circle cx="334" cy="957" r="7" fill="#6fb04c"/><circle cx="390" cy="51" r="15" fill="#3c6b2d" opacity=".5"/><circle cx="390" cy="48" r="15" fill="#4f8f3b"/><circle cx="386" cy="44" r="8" fill="#6fb04c"/><circle cx="390" cy="964" r="13" fill="#3c6b2d" opacity=".5"/><circle cx="390" cy="961" r="13" fill="#4f8f3b"/><circle cx="386" cy="957" r="7" fill="#6fb04c"/><circle cx="442" cy="51" r="15" fill="#3c6b2d" opacity=".5"/><circle cx="442" cy="48" r="15" fill="#4f8f3b"/><circle cx="438" cy="44" r="8" fill="#6fb04c"/><circle cx="442" cy="964" r="13" fill="#3c6b2d" opacity=".5"/><circle cx="442" cy="961" r="13" fill="#4f8f3b"/><circle cx="438" cy="957" r="7" fill="#6fb04c"/><circle cx="494" cy="51" r="15" fill="#3c6b2d" opacity=".5"/><circle cx="494" cy="48" r="15" fill="#4f8f3b"/><circle cx="490" cy="44" r="8" fill="#6fb04c"/><circle cx="494" cy="964" r="13" fill="#3c6b2d" opacity=".5"/><circle cx="494" cy="961" r="13" fill="#4f8f3b"/><circle cx="490" cy="957" r="7" fill="#6fb04c"/><circle cx="546" cy="51" r="15" fill="#3c6b2d" opacity=".5"/><circle cx="546" cy="48" r="15" fill="#4f8f3b"/><circle cx="542" cy="44" r="8" fill="#6fb04c"/><circle cx="546" cy="964" r="13" fill="#3c6b2d" opacity=".5"/><circle cx="546" cy="961" r="13" fill="#4f8f3b"/><circle cx="542" cy="957" r="7" fill="#6fb04c"/><circle cx="598" cy="51" r="15" fill="#3c6b2d" opacity=".5"/><circle cx="598" cy="48" r="15" fill="#4f8f3b"/><circle cx="594" cy="44" r="8" fill="#6fb04c"/><circle cx="598" cy="964" r="13" fill="#3c6b2d" opacity=".5"/><circle cx="598" cy="961" r="13" fill="#4f8f3b"/><circle cx="594" cy="957" r="7" fill="#6fb04c"/><circle cx="650" cy="51" r="15" fill="#3c6b2d" opacity=".5"/><circle cx="650" cy="48" r="15" fill="#4f8f3b"/><circle cx="646" cy="44" r="8" fill="#6fb04c"/><circle cx="650" cy="964" r="13" fill="#3c6b2d" opacity=".5"/><circle cx="650" cy="961" r="13" fill="#4f8f3b"/><circle cx="646" cy="957" r="7" fill="#6fb04c"/><circle cx="702" cy="51" r="15" fill="#3c6b2d" opacity=".5"/><circle cx="702" cy="48" r="15" fill="#4f8f3b"/><circle cx="698" cy="44" r="8" fill="#6fb04c"/><circle cx="702" cy="964" r="13" fill="#3c6b2d" opacity=".5"/><circle cx="702" cy="961" r="13" fill="#4f8f3b"/><circle cx="698" cy="957" r="7" fill="#6fb04c"/><circle cx="754" cy="51" r="15" fill="#3c6b2d" opacity=".5"/><circle cx="754" cy="48" r="15" fill="#4f8f3b"/><circle cx="750" cy="44" r="8" fill="#6fb04c"/><circle cx="754" cy="964" r="13" fill="#3c6b2d" opacity=".5"/><circle cx="754" cy="961" r="13" fill="#4f8f3b"/><circle cx="750" cy="957" r="7" fill="#6fb04c"/><circle cx="806" cy="51" r="15" fill="#3c6b2d" opacity=".5"/><circle cx="806" cy="48" r="15" fill="#4f8f3b"/><circle cx="802" cy="44" r="8" fill="#6fb04c"/><circle cx="806" cy="964" r="13" fill="#3c6b2d" opacity=".5"/><circle cx="806" cy="961" r="13" fill="#4f8f3b"/><circle cx="802" cy="957" r="7" fill="#6fb04c"/><circle cx="858" cy="51" r="15" fill="#3c6b2d" opacity=".5"/><circle cx="858" cy="48" r="15" fill="#4f8f3b"/><circle cx="854" cy="44" r="8" fill="#6fb04c"/><circle cx="858" cy="964" r="13" fill="#3c6b2d" opacity=".5"/><circle cx="858" cy="961" r="13" fill="#4f8f3b"/><circle cx="854" cy="957" r="7" fill="#6fb04c"/><circle cx="910" cy="51" r="15" fill="#3c6b2d" opacity=".5"/><circle cx="910" cy="48" r="15" fill="#4f8f3b"/><circle cx="906" cy="44" r="8" fill="#6fb04c"/><circle cx="910" cy="964" r="13" fill="#3c6b2d" opacity=".5"/><circle cx="910" cy="961" r="13" fill="#4f8f3b"/><circle cx="906" cy="957" r="7" fill="#6fb04c"/><circle cx="962" cy="51" r="15" fill="#3c6b2d" opacity=".5"/><circle cx="962" cy="48" r="15" fill="#4f8f3b"/><circle cx="958" cy="44" r="8" fill="#6fb04c"/><circle cx="962" cy="964" r="13" fill="#3c6b2d" opacity=".5"/><circle cx="962" cy="961" r="13" fill="#4f8f3b"/><circle cx="958" cy="957" r="7" fill="#6fb04c"/><circle cx="1014" cy="51" r="15" fill="#3c6b2d" opacity=".5"/><circle cx="1014" cy="48" r="15" fill="#4f8f3b"/><circle cx="1010" cy="44" r="8" fill="#6fb04c"/><circle cx="1014" cy="964" r="13" fill="#3c6b2d" opacity=".5"/><circle cx="1014" cy="961" r="13" fill="#4f8f3b"/><circle cx="1010" cy="957" r="7" fill="#6fb04c"/><circle cx="1066" cy="51" r="15" fill="#3c6b2d" opacity=".5"/><circle cx="1066" cy="48" r="15" fill="#4f8f3b"/><circle cx="1062" cy="44" r="8" fill="#6fb04c"/><circle cx="1066" cy="964" r="13" fill="#3c6b2d" opacity=".5"/><circle cx="1066" cy="961" r="13" fill="#4f8f3b"/><circle cx="1062" cy="957" r="7" fill="#6fb04c"/><circle cx="1118" cy="51" r="15" fill="#3c6b2d" opacity=".5"/><circle cx="1118" cy="48" r="15" fill="#4f8f3b"/><circle cx="1114" cy="44" r="8" fill="#6fb04c"/><circle cx="1118" cy="964" r="13" fill="#3c6b2d" opacity=".5"/><circle cx="1118" cy="961" r="13" fill="#4f8f3b"/><circle cx="1114" cy="957" r="7" fill="#6fb04c"/><circle cx="1170" cy="51" r="15" fill="#3c6b2d" opacity=".5"/><circle cx="1170" cy="48" r="15" fill="#4f8f3b"/><circle cx="1166" cy="44" r="8" fill="#6fb04c"/><circle cx="1170" cy="964" r="13" fill="#3c6b2d" opacity=".5"/><circle cx="1170" cy="961" r="13" fill="#4f8f3b"/><circle cx="1166" cy="957" r="7" fill="#6fb04c"/><circle cx="1222" cy="51" r="15" fill="#3c6b2d" opacity=".5"/><circle cx="1222" cy="48" r="15" fill="#4f8f3b"/><circle cx="1218" cy="44" r="8" fill="#6fb04c"/><circle cx="1222" cy="964" r="13" fill="#3c6b2d" opacity=".5"/><circle cx="1222" cy="961" r="13" fill="#4f8f3b"/><circle cx="1218" cy="957" r="7" fill="#6fb04c"/><circle cx="1274" cy="51" r="15" fill="#3c6b2d" opacity=".5"/><circle cx="1274" cy="48" r="15" fill="#4f8f3b"/><circle cx="1270" cy="44" r="8" fill="#6fb04c"/><circle cx="1274" cy="964" r="13" fill="#3c6b2d" opacity=".5"/><circle cx="1274" cy="961" r="13" fill="#4f8f3b"/><circle cx="1270" cy="957" r="7" fill="#6fb04c"/><circle cx="1326" cy="51" r="15" fill="#3c6b2d" opacity=".5"/><circle cx="1326" cy="48" r="15" fill="#4f8f3b"/><circle cx="1322" cy="44" r="8" fill="#6fb04c"/><circle cx="1326" cy="964" r="13" fill="#3c6b2d" opacity=".5"/><circle cx="1326" cy="961" r="13" fill="#4f8f3b"/><circle cx="1322" cy="957" r="7" fill="#6fb04c"/><circle cx="1378" cy="51" r="15" fill="#3c6b2d" opacity=".5"/><circle cx="1378" cy="48" r="15" fill="#4f8f3b"/><circle cx="1374" cy="44" r="8" fill="#6fb04c"/><circle cx="1378" cy="964" r="13" fill="#3c6b2d" opacity=".5"/><circle cx="1378" cy="961" r="13" fill="#4f8f3b"/><circle cx="1374" cy="957" r="7" fill="#6fb04c"/><circle cx="1430" cy="51" r="15" fill="#3c6b2d" opacity=".5"/><circle cx="1430" cy="48" r="15" fill="#4f8f3b"/><circle cx="1426" cy="44" r="8" fill="#6fb04c"/><circle cx="1430" cy="964" r="13" fill="#3c6b2d" opacity=".5"/><circle cx="1430" cy="961" r="13" fill="#4f8f3b"/><circle cx="1426" cy="957" r="7" fill="#6fb04c"/><circle cx="1482" cy="51" r="15" fill="#3c6b2d" opacity=".5"/><circle cx="1482" cy="48" r="15" fill="#4f8f3b"/><circle cx="1478" cy="44" r="8" fill="#6fb04c"/><circle cx="1482" cy="964" r="13" fill="#3c6b2d" opacity=".5"/><circle cx="1482" cy="961" r="13" fill="#4f8f3b"/><circle cx="1478" cy="957" r="7" fill="#6fb04c"/><circle cx="48" cy="99" r="15" fill="#3c6b2d" opacity=".5"/><circle cx="48" cy="96" r="15" fill="#4f8f3b"/><circle cx="44" cy="92" r="8" fill="#6fb04c"/><circle cx="1552" cy="99" r="15" fill="#3c6b2d" opacity=".5"/><circle cx="1552" cy="96" r="15" fill="#4f8f3b"/><circle cx="1548" cy="92" r="8" fill="#6fb04c"/><circle cx="1483" cy="99" r="15" fill="#3c6b2d" opacity=".5"/><circle cx="1483" cy="96" r="15" fill="#4f8f3b"/><circle cx="1478" cy="92" r="8" fill="#6fb04c"/><circle cx="48" cy="151" r="15" fill="#3c6b2d" opacity=".5"/><circle cx="48" cy="148" r="15" fill="#4f8f3b"/><circle cx="44" cy="144" r="8" fill="#6fb04c"/><circle cx="1552" cy="151" r="15" fill="#3c6b2d" opacity=".5"/><circle cx="1552" cy="148" r="15" fill="#4f8f3b"/><circle cx="1548" cy="144" r="8" fill="#6fb04c"/><circle cx="1483" cy="151" r="15" fill="#3c6b2d" opacity=".5"/><circle cx="1483" cy="148" r="15" fill="#4f8f3b"/><circle cx="1478" cy="144" r="8" fill="#6fb04c"/><circle cx="48" cy="203" r="15" fill="#3c6b2d" opacity=".5"/><circle cx="48" cy="200" r="15" fill="#4f8f3b"/><circle cx="44" cy="196" r="8" fill="#6fb04c"/><circle cx="1552" cy="203" r="15" fill="#3c6b2d" opacity=".5"/><circle cx="1552" cy="200" r="15" fill="#4f8f3b"/><circle cx="1548" cy="196" r="8" fill="#6fb04c"/><circle cx="1483" cy="203" r="15" fill="#3c6b2d" opacity=".5"/><circle cx="1483" cy="200" r="15" fill="#4f8f3b"/><circle cx="1478" cy="196" r="8" fill="#6fb04c"/><circle cx="48" cy="255" r="15" fill="#3c6b2d" opacity=".5"/><circle cx="48" cy="252" r="15" fill="#4f8f3b"/><circle cx="44" cy="248" r="8" fill="#6fb04c"/><circle cx="1552" cy="255" r="15" fill="#3c6b2d" opacity=".5"/><circle cx="1552" cy="252" r="15" fill="#4f8f3b"/><circle cx="1548" cy="248" r="8" fill="#6fb04c"/><circle cx="1483" cy="255" r="15" fill="#3c6b2d" opacity=".5"/><circle cx="1483" cy="252" r="15" fill="#4f8f3b"/><circle cx="1478" cy="248" r="8" fill="#6fb04c"/><circle cx="48" cy="307" r="15" fill="#3c6b2d" opacity=".5"/><circle cx="48" cy="304" r="15" fill="#4f8f3b"/><circle cx="44" cy="300" r="8" fill="#6fb04c"/><circle cx="1552" cy="307" r="15" fill="#3c6b2d" opacity=".5"/><circle cx="1552" cy="304" r="15" fill="#4f8f3b"/><circle cx="1548" cy="300" r="8" fill="#6fb04c"/><circle cx="1483" cy="307" r="15" fill="#3c6b2d" opacity=".5"/><circle cx="1483" cy="304" r="15" fill="#4f8f3b"/><circle cx="1478" cy="300" r="8" fill="#6fb04c"/><circle cx="48" cy="359" r="15" fill="#3c6b2d" opacity=".5"/><circle cx="48" cy="356" r="15" fill="#4f8f3b"/><circle cx="44" cy="352" r="8" fill="#6fb04c"/><circle cx="1552" cy="359" r="15" fill="#3c6b2d" opacity=".5"/><circle cx="1552" cy="356" r="15" fill="#4f8f3b"/><circle cx="1548" cy="352" r="8" fill="#6fb04c"/><circle cx="1483" cy="359" r="15" fill="#3c6b2d" opacity=".5"/><circle cx="1483" cy="356" r="15" fill="#4f8f3b"/><circle cx="1478" cy="352" r="8" fill="#6fb04c"/><circle cx="48" cy="411" r="15" fill="#3c6b2d" opacity=".5"/><circle cx="48" cy="408" r="15" fill="#4f8f3b"/><circle cx="44" cy="404" r="8" fill="#6fb04c"/><circle cx="1552" cy="411" r="15" fill="#3c6b2d" opacity=".5"/><circle cx="1552" cy="408" r="15" fill="#4f8f3b"/><circle cx="1548" cy="404" r="8" fill="#6fb04c"/><circle cx="1483" cy="411" r="15" fill="#3c6b2d" opacity=".5"/><circle cx="1483" cy="408" r="15" fill="#4f8f3b"/><circle cx="1478" cy="404" r="8" fill="#6fb04c"/><circle cx="48" cy="463" r="15" fill="#3c6b2d" opacity=".5"/><circle cx="48" cy="460" r="15" fill="#4f8f3b"/><circle cx="44" cy="456" r="8" fill="#6fb04c"/><circle cx="1552" cy="463" r="15" fill="#3c6b2d" opacity=".5"/><circle cx="1552" cy="460" r="15" fill="#4f8f3b"/><circle cx="1548" cy="456" r="8" fill="#6fb04c"/><circle cx="1483" cy="463" r="15" fill="#3c6b2d" opacity=".5"/><circle cx="1483" cy="460" r="15" fill="#4f8f3b"/><circle cx="1478" cy="456" r="8" fill="#6fb04c"/><circle cx="48" cy="515" r="15" fill="#3c6b2d" opacity=".5"/><circle cx="48" cy="512" r="15" fill="#4f8f3b"/><circle cx="44" cy="508" r="8" fill="#6fb04c"/><circle cx="1552" cy="515" r="15" fill="#3c6b2d" opacity=".5"/><circle cx="1552" cy="512" r="15" fill="#4f8f3b"/><circle cx="1548" cy="508" r="8" fill="#6fb04c"/><circle cx="1483" cy="515" r="15" fill="#3c6b2d" opacity=".5"/><circle cx="1483" cy="512" r="15" fill="#4f8f3b"/><circle cx="1478" cy="508" r="8" fill="#6fb04c"/><circle cx="48" cy="567" r="15" fill="#3c6b2d" opacity=".5"/><circle cx="48" cy="564" r="15" fill="#4f8f3b"/><circle cx="44" cy="560" r="8" fill="#6fb04c"/><circle cx="1552" cy="567" r="15" fill="#3c6b2d" opacity=".5"/><circle cx="1552" cy="564" r="15" fill="#4f8f3b"/><circle cx="1548" cy="560" r="8" fill="#6fb04c"/><circle cx="1483" cy="567" r="15" fill="#3c6b2d" opacity=".5"/><circle cx="1483" cy="564" r="15" fill="#4f8f3b"/><circle cx="1478" cy="560" r="8" fill="#6fb04c"/><circle cx="48" cy="619" r="15" fill="#3c6b2d" opacity=".5"/><circle cx="48" cy="616" r="15" fill="#4f8f3b"/><circle cx="44" cy="612" r="8" fill="#6fb04c"/><circle cx="1552" cy="619" r="15" fill="#3c6b2d" opacity=".5"/><circle cx="1552" cy="616" r="15" fill="#4f8f3b"/><circle cx="1548" cy="612" r="8" fill="#6fb04c"/><circle cx="1483" cy="619" r="15" fill="#3c6b2d" opacity=".5"/><circle cx="1483" cy="616" r="15" fill="#4f8f3b"/><circle cx="1478" cy="612" r="8" fill="#6fb04c"/><circle cx="48" cy="671" r="15" fill="#3c6b2d" opacity=".5"/><circle cx="48" cy="668" r="15" fill="#4f8f3b"/><circle cx="44" cy="664" r="8" fill="#6fb04c"/><circle cx="1552" cy="671" r="15" fill="#3c6b2d" opacity=".5"/><circle cx="1552" cy="668" r="15" fill="#4f8f3b"/><circle cx="1548" cy="664" r="8" fill="#6fb04c"/><circle cx="1483" cy="671" r="15" fill="#3c6b2d" opacity=".5"/><circle cx="1483" cy="668" r="15" fill="#4f8f3b"/><circle cx="1478" cy="664" r="8" fill="#6fb04c"/><circle cx="48" cy="723" r="15" fill="#3c6b2d" opacity=".5"/><circle cx="48" cy="720" r="15" fill="#4f8f3b"/><circle cx="44" cy="716" r="8" fill="#6fb04c"/><circle cx="1552" cy="723" r="15" fill="#3c6b2d" opacity=".5"/><circle cx="1552" cy="720" r="15" fill="#4f8f3b"/><circle cx="1548" cy="716" r="8" fill="#6fb04c"/><circle cx="1483" cy="723" r="15" fill="#3c6b2d" opacity=".5"/><circle cx="1483" cy="720" r="15" fill="#4f8f3b"/><circle cx="1478" cy="716" r="8" fill="#6fb04c"/><circle cx="48" cy="775" r="15" fill="#3c6b2d" opacity=".5"/><circle cx="48" cy="772" r="15" fill="#4f8f3b"/><circle cx="44" cy="768" r="8" fill="#6fb04c"/><circle cx="1552" cy="775" r="15" fill="#3c6b2d" opacity=".5"/><circle cx="1552" cy="772" r="15" fill="#4f8f3b"/><circle cx="1548" cy="768" r="8" fill="#6fb04c"/><circle cx="1483" cy="775" r="15" fill="#3c6b2d" opacity=".5"/><circle cx="1483" cy="772" r="15" fill="#4f8f3b"/><circle cx="1478" cy="768" r="8" fill="#6fb04c"/><circle cx="48" cy="827" r="15" fill="#3c6b2d" opacity=".5"/><circle cx="48" cy="824" r="15" fill="#4f8f3b"/><circle cx="44" cy="820" r="8" fill="#6fb04c"/><circle cx="1552" cy="827" r="15" fill="#3c6b2d" opacity=".5"/><circle cx="1552" cy="824" r="15" fill="#4f8f3b"/><circle cx="1548" cy="820" r="8" fill="#6fb04c"/><circle cx="1483" cy="827" r="15" fill="#3c6b2d" opacity=".5"/><circle cx="1483" cy="824" r="15" fill="#4f8f3b"/><circle cx="1478" cy="820" r="8" fill="#6fb04c"/><circle cx="48" cy="879" r="15" fill="#3c6b2d" opacity=".5"/><circle cx="48" cy="876" r="15" fill="#4f8f3b"/><circle cx="44" cy="872" r="8" fill="#6fb04c"/><circle cx="1552" cy="879" r="15" fill="#3c6b2d" opacity=".5"/><circle cx="1552" cy="876" r="15" fill="#4f8f3b"/><circle cx="1548" cy="872" r="8" fill="#6fb04c"/><circle cx="1483" cy="879" r="15" fill="#3c6b2d" opacity=".5"/><circle cx="1483" cy="876" r="15" fill="#4f8f3b"/><circle cx="1478" cy="872" r="8" fill="#6fb04c"/><rect width="400" height="408" x="250" y="232" fill="#78ab55" rx="12"/><rect width="104" height="408" x="676" y="232" fill="#78ab55" rx="12"/><circle cx="330" cy="323" r="19" fill="#3c6b2d" opacity=".5"/><circle cx="330" cy="320" r="19" fill="#4f8f3b"/><circle cx="324" cy="314" r="10" fill="#6fb04c"/><circle cx="470" cy="293" r="19" fill="#3c6b2d" opacity=".5"/><circle cx="470" cy="290" r="19" fill="#4f8f3b"/><circle cx="464" cy="284" r="10" fill="#6fb04c"/><circle cx="590" cy="403" r="19" fill="#3c6b2d" opacity=".5"/><circle cx="590" cy="400" r="19" fill="#4f8f3b"/><circle cx="584" cy="394" r="10" fill="#6fb04c"/><circle cx="360" cy="523" r="19" fill="#3c6b2d" opacity=".5"/><circle cx="360" cy="520" r="19" fill="#4f8f3b"/><circle cx="354" cy="514" r="10" fill="#6fb04c"/><circle cx="520" cy="593" r="19" fill="#3c6b2d" opacity=".5"/><circle cx="520" cy="590" r="19" fill="#4f8f3b"/><circle cx="514" cy="584" r="10" fill="#6fb04c"/><circle cx="728" cy="303" r="19" fill="#3c6b2d" opacity=".5"/><circle cx="728" cy="300" r="19" fill="#4f8f3b"/><circle cx="722" cy="294" r="10" fill="#6fb04c"/><circle cx="728" cy="473" r="19" fill="#3c6b2d" opacity=".5"/><circle cx="728" cy="470" r="19" fill="#4f8f3b"/><circle cx="722" cy="464" r="10" fill="#6fb04c"/><circle cx="728" cy="603" r="19" fill="#3c6b2d" opacity=".5"/><circle cx="728" cy="600" r="19" fill="#4f8f3b"/><circle cx="722" cy="594" r="10" fill="#6fb04c"/><rect width="840" height="54" x="300" y="96" fill="#53575f"/><line x1="344.2" x2="344.2" y1="96" y2="150" stroke="#fff" stroke-width="3"/><line x1="388.4" x2="388.4" y1="96" y2="150" stroke="#fff" stroke-width="3"/><line x1="432.6" x2="432.6" y1="96" y2="150" stroke="#fff" stroke-width="3"/><line x1="476.8" x2="476.8" y1="96" y2="150" stroke="#fff" stroke-width="3"/><line x1="521.1" x2="521.1" y1="96" y2="150" stroke="#fff" stroke-width="3"/><line x1="565.3" x2="565.3" y1="96" y2="150" stroke="#fff" stroke-width="3"/><line x1="609.5" x2="609.5" y1="96" y2="150" stroke="#fff" stroke-width="3"/><line x1="653.7" x2="653.7" y1="96" y2="150" stroke="#fff" stroke-width="3"/><line x1="697.9" x2="697.9" y1="96" y2="150" stroke="#fff" stroke-width="3"/><line x1="742.1" x2="742.1" y1="96" y2="150" stroke="#fff" stroke-width="3"/><line x1="786.3" x2="786.3" y1="96" y2="150" stroke="#fff" stroke-width="3"/><line x1="830.5" x2="830.5" y1="96" y2="150" stroke="#fff" stroke-width="3"/><line x1="874.7" x2="874.7" y1="96" y2="150" stroke="#fff" stroke-width="3"/><line x1="918.9" x2="918.9" y1="96" y2="150" stroke="#fff" stroke-width="3"/><line x1="963.2" x2="963.2" y1="96" y2="150" stroke="#fff" stroke-width="3"/><line x1="1007.4" x2="1007.4" y1="96" y2="150" stroke="#fff" stroke-width="3"/><line x1="1051.6" x2="1051.6" y1="96" y2="150" stroke="#fff" stroke-width="3"/><line x1="1095.8" x2="1095.8" y1="96" y2="150" stroke="#fff" stroke-width="3"/><rect width="700" height="54" x="300" y="158" fill="#53575f"/><line x1="343.8" x2="343.8" y1="158" y2="212" stroke="#fff" stroke-width="3"/><line x1="387.5" x2="387.5" y1="158" y2="212" stroke="#fff" stroke-width="3"/><line x1="431.2" x2="431.2" y1="158" y2="212" stroke="#fff" stroke-width="3"/><line x1="475" x2="475" y1="158" y2="212" stroke="#fff" stroke-width="3"/><line x1="518.8" x2="518.8" y1="158" y2="212" stroke="#fff" stroke-width="3"/><line x1="562.5" x2="562.5" y1="158" y2="212" stroke="#fff" stroke-width="3"/><line x1="606.2" x2="606.2" y1="158" y2="212" stroke="#fff" stroke-width="3"/><line x1="650" x2="650" y1="158" y2="212" stroke="#fff" stroke-width="3"/><line x1="693.8" x2="693.8" y1="158" y2="212" stroke="#fff" stroke-width="3"/><line x1="737.5" x2="737.5" y1="158" y2="212" stroke="#fff" stroke-width="3"/><line x1="781.2" x2="781.2" y1="158" y2="212" stroke="#fff" stroke-width="3"/><line x1="825" x2="825" y1="158" y2="212" stroke="#fff" stroke-width="3"/><line x1="868.8" x2="868.8" y1="158" y2="212" stroke="#fff" stroke-width="3"/><line x1="912.5" x2="912.5" y1="158" y2="212" stroke="#fff" stroke-width="3"/><line x1="956.2" x2="956.2" y1="158" y2="212" stroke="#fff" stroke-width="3"/><rect width="105" height="580" x="1345" y="120" fill="#53575f"/><line x1="1345" x2="1450" y1="164.6" y2="164.6" stroke="#fff" stroke-width="3"/><line x1="1345" x2="1450" y1="209.2" y2="209.2" stroke="#fff" stroke-width="3"/><line x1="1345" x2="1450" y1="253.8" y2="253.8" stroke="#fff" stroke-width="3"/><line x1="1345" x2="1450" y1="298.5" y2="298.5" stroke="#fff" stroke-width="3"/><line x1="1345" x2="1450" y1="343.1" y2="343.1" stroke="#fff" stroke-width="3"/><line x1="1345" x2="1450" y1="387.7" y2="387.7" stroke="#fff" stroke-width="3"/><line x1="1345" x2="1450" y1="432.3" y2="432.3" stroke="#fff" stroke-width="3"/><line x1="1345" x2="1450" y1="476.9" y2="476.9" stroke="#fff" stroke-width="3"/><line x1="1345" x2="1450" y1="521.5" y2="521.5" stroke="#fff" stroke-width="3"/><line x1="1345" x2="1450" y1="566.2" y2="566.2" stroke="#fff" stroke-width="3"/><line x1="1345" x2="1450" y1="610.8" y2="610.8" stroke="#fff" stroke-width="3"/><line x1="1345" x2="1450" y1="655.4" y2="655.4" stroke="#fff" stroke-width="3"/><rect width="105" height="160" x="1345" y="700" fill="#53575f"/><line x1="1345" x2="1450" y1="740" y2="740" stroke="#fff" stroke-width="3"/><line x1="1345" x2="1450" y1="780" y2="780" stroke="#fff" stroke-width="3"/><line x1="1345" x2="1450" y1="820" y2="820" stroke="#fff" stroke-width="3"/><rect width="650" height="72" x="500" y="858" fill="#53575f"/><line x1="543.3" x2="543.3" y1="858" y2="930" stroke="#fff" stroke-width="3"/><line x1="586.7" x2="586.7" y1="858" y2="930" stroke="#fff" stroke-width="3"/><line x1="630" x2="630" y1="858" y2="930" stroke="#fff" stroke-width="3"/><line x1="673.3" x2="673.3" y1="858" y2="930" stroke="#fff" stroke-width="3"/><line x1="716.7" x2="716.7" y1="858" y2="930" stroke="#fff" stroke-width="3"/><line x1="760" x2="760" y1="858" y2="930" stroke="#fff" stroke-width="3"/><line x1="803.3" x2="803.3" y1="858" y2="930" stroke="#fff" stroke-width="3"/><line x1="846.7" x2="846.7" y1="858" y2="930" stroke="#fff" stroke-width="3"/><line x1="890" x2="890" y1="858" y2="930" stroke="#fff" stroke-width="3"/><line x1="933.3" x2="933.3" y1="858" y2="930" stroke="#fff" stroke-width="3"/><line x1="976.7" x2="976.7" y1="858" y2="930" stroke="#fff" stroke-width="3"/><line x1="1020" x2="1020" y1="858" y2="930" stroke="#fff" stroke-width="3"/><line x1="1063.3" x2="1063.3" y1="858" y2="930" stroke="#fff" stroke-width="3"/><line x1="1106.7" x2="1106.7" y1="858" y2="930" stroke="#fff" stroke-width="3"/><rect width="62" height="54" x="506" y="866" fill="#2f6fb5"/><circle cx="537" cy="882" r="5" fill="#fff"/><path fill="none" stroke="#fff" stroke-linecap="round" stroke-width="4" d="M528 906 a11 11 0 1 1 15 -9"/><path fill="none" stroke="#fff" stroke-linecap="round" stroke-linejoin="round" stroke-width="4" d="M536 889 h8 l5 12"/><rect width="62" height="54" x="1074" y="866" fill="#2f6fb5"/><circle cx="1105" cy="882" r="5" fill="#fff"/><path fill="none" stroke="#fff" stroke-linecap="round" stroke-width="4" d="M1096 906 a11 11 0 1 1 15 -9"/><path fill="none" stroke="#fff" stroke-linecap="round" stroke-linejoin="round" stroke-width="4" d="M1104 889 h8 l5 12"/><path fill="url(#hatch)" d="M1152 858 h70 v72 h-70 Z" opacity=".85"/><path fill="url(#hatch)" d="M228 130 h96 v46 h-96 Z" opacity=".85"/><path fill="none" stroke="#fff" stroke-width="4" d="M96 210 q0 -96 108 -96 h120"/><path fill="none" stroke="#fff" stroke-width="4" d="M96 210 V820 q0 96 108 96 h150"/><rect width="840" height="30" x="330" y="640" fill="#e9ecef"/><rect width="26" height="408" x="650" y="232" fill="#e9ecef"/><rect width="270" height="305" x="790" y="320" fill="#f3f5f7" stroke="#c6ccd4" stroke-width="3" rx="6"/><rect width="140" height="245" x="860" y="355" fill="url(#poolg)" stroke="#1f93c4" stroke-width="3" rx="5"/><rect width="26" height="22" x="804" y="354" fill="#fff" stroke="#aeb5bf" stroke-width="1.6" rx="3"/><rect width="26" height="22" x="804" y="387" fill="#fff" stroke="#aeb5bf" stroke-width="1.6" rx="3"/><rect width="26" height="22" x="804" y="420" fill="#fff" stroke="#aeb5bf" stroke-width="1.6" rx="3"/><rect width="26" height="22" x="804" y="453" fill="#fff" stroke="#aeb5bf" stroke-width="1.6" rx="3"/><rect width="26" height="22" x="804" y="486" fill="#fff" stroke="#aeb5bf" stroke-width="1.6" rx="3"/><rect width="26" height="22" x="804" y="519" fill="#fff" stroke="#aeb5bf" stroke-width="1.6" rx="3"/><rect width="26" height="22" x="804" y="552" fill="#fff" stroke="#aeb5bf" stroke-width="1.6" rx="3"/><rect width="26" height="22" x="804" y="585" fill="#fff" stroke="#aeb5bf" stroke-width="1.6" rx="3"/><rect width="22" height="22" x="878" y="367" fill="none" stroke="#fff" stroke-width="3" rx="2"/><rect width="22" height="22" x="878" y="566" fill="none" stroke="#fff" stroke-width="3" rx="2"/><text x="930" y="474" fill="#fff" font-size="19" font-weight="800" letter-spacing="1.5" text-anchor="middle">SWIM</text><text x="930" y="496" fill="#fff" font-size="19" font-weight="800" letter-spacing="1.5" text-anchor="middle">POOL</text><rect width="62" height="52" x="796" y="258" fill="#ece7d8" stroke="#7b828d" stroke-width="2" rx="4"/><path fill="url(#roofg)" stroke="#c6ccd4" stroke-linejoin="round" stroke-width="3" d="M90.0 700.0 H1320.0 V54.0 H1245.0 V100.0 H1170.0 V850.0 H90.0 Z"/><rect width="60" height="75" x="330" y="700" fill="none" stroke="#aeb5bf" stroke-width="1.2"/><rect width="60" height="75" x="330" y="775" fill="none" stroke="#aeb5bf" stroke-width="1.2"/><rect width="60" height="75" x="390" y="700" fill="none" stroke="#aeb5bf" stroke-width="1.2"/><rect width="60" height="75" x="390" y="775" fill="none" stroke="#aeb5bf" stroke-width="1.2"/><rect width="60" height="75" x="450" y="700" fill="none" stroke="#aeb5bf" stroke-width="1.2"/><rect width="60" height="75" x="450" y="775" fill="none" stroke="#aeb5bf" stroke-width="1.2"/><rect width="60" height="75" x="510" y="700" fill="none" stroke="#aeb5bf" stroke-width="1.2"/><rect width="60" height="75" x="510" y="775" fill="none" stroke="#aeb5bf" stroke-width="1.2"/><rect width="60" height="75" x="570" y="700" fill="none" stroke="#aeb5bf" stroke-width="1.2"/><rect width="60" height="75" x="570" y="775" fill="none" stroke="#aeb5bf" stroke-width="1.2"/><rect width="60" height="75" x="630" y="700" fill="none" stroke="#aeb5bf" stroke-width="1.2"/><rect width="60" height="75" x="630" y="775" fill="none" stroke="#aeb5bf" stroke-width="1.2"/><rect width="60" height="75" x="690" y="700" fill="none" stroke="#aeb5bf" stroke-width="1.2"/><rect width="60" height="75" x="690" y="775" fill="none" stroke="#aeb5bf" stroke-width="1.2"/><rect width="60" height="75" x="750" y="700" fill="none" stroke="#aeb5bf" stroke-width="1.2"/><rect width="60" height="75" x="750" y="775" fill="none" stroke="#aeb5bf" stroke-width="1.2"/><rect width="60" height="75" x="810" y="700" fill="none" stroke="#aeb5bf" stroke-width="1.2"/><rect width="60" height="75" x="810" y="775" fill="none" stroke="#aeb5bf" stroke-width="1.2"/><rect width="60" height="75" x="870" y="700" fill="none" stroke="#aeb5bf" stroke-width="1.2"/><rect width="60" height="75" x="870" y="775" fill="none" stroke="#aeb5bf" stroke-width="1.2"/><rect width="60" height="75" x="930" y="700" fill="none" stroke="#aeb5bf" stroke-width="1.2"/><rect width="60" height="75" x="930" y="775" fill="none" stroke="#aeb5bf" stroke-width="1.2"/><rect width="60" height="75" x="990" y="700" fill="none" stroke="#aeb5bf" stroke-width="1.2"/><rect width="60" height="75" x="990" y="775" fill="none" stroke="#aeb5bf" stroke-width="1.2"/><rect width="60" height="75" x="1050" y="700" fill="none" stroke="#aeb5bf" stroke-width="1.2"/><rect width="60" height="75" x="1050" y="775" fill="none" stroke="#aeb5bf" stroke-width="1.2"/><rect width="60" height="75" x="1110" y="700" fill="none" stroke="#aeb5bf" stroke-width="1.2"/><rect width="60" height="75" x="1110" y="775" fill="none" stroke="#aeb5bf" stroke-width="1.2"/><rect width="60" height="150" x="90" y="700" fill="#ece7d8" stroke="#aeb5bf" stroke-width="1.2"/><text x="120" y="841" fill="#2b3240" font-size="8.5" font-weight="800" letter-spacing=".4" text-anchor="middle">GM OFFICE</text><rect width="60" height="150" x="150" y="700" fill="#ece7d8" stroke="#aeb5bf" stroke-width="1.2"/><text x="180" y="841" fill="#2b3240" font-size="8.5" font-weight="800" letter-spacing=".4" text-anchor="middle">KITCHEN</text><rect width="60" height="150" x="210" y="700" fill="#ece7d8" stroke="#aeb5bf" stroke-width="1.2"/><text x="240" y="841" fill="#2b3240" font-size="8.5" font-weight="800" letter-spacing=".4" text-anchor="middle">LOBBY</text><rect width="60" height="150" x="270" y="700" fill="#ece7d8" stroke="#aeb5bf" stroke-width="1.2"/><text x="300" y="841" fill="#2b3240" font-size="8.5" font-weight="800" letter-spacing=".4" text-anchor="middle">SECURITY</text><rect width="75" height="42.9" x="1170" y="657.1" fill="none" stroke="#aeb5bf" stroke-width="1.2"/><rect width="75" height="42.9" x="1245" y="657.1" fill="none" stroke="#aeb5bf" stroke-width="1.2"/><rect width="75" height="42.9" x="1170" y="614.3" fill="none" stroke="#aeb5bf" stroke-width="1.2"/><rect width="75" height="42.9" x="1245" y="614.3" fill="none" stroke="#aeb5bf" stroke-width="1.2"/><rect width="75" height="42.9" x="1170" y="571.4" fill="none" stroke="#aeb5bf" stroke-width="1.2"/><rect width="75" height="42.9" x="1245" y="571.4" fill="none" stroke="#aeb5bf" stroke-width="1.2"/><rect width="75" height="42.9" x="1170" y="528.6" fill="none" stroke="#aeb5bf" stroke-width="1.2"/><rect width="75" height="42.9" x="1245" y="528.6" fill="none" stroke="#aeb5bf" stroke-width="1.2"/><rect width="75" height="42.9" x="1170" y="485.7" fill="none" stroke="#aeb5bf" stroke-width="1.2"/><rect width="75" height="42.9" x="1245" y="485.7" fill="none" stroke="#aeb5bf" stroke-width="1.2"/><rect width="75" height="42.9" x="1170" y="442.9" fill="none" stroke="#aeb5bf" stroke-width="1.2"/><rect width="75" height="42.9" x="1245" y="442.9" fill="none" stroke="#aeb5bf" stroke-width="1.2"/><rect width="75" height="42.9" x="1170" y="400" fill="none" stroke="#aeb5bf" stroke-width="1.2"/><rect width="75" height="42.9" x="1245" y="400" fill="none" stroke="#aeb5bf" stroke-width="1.2"/><rect width="75" height="42.9" x="1170" y="357.1" fill="none" stroke="#aeb5bf" stroke-width="1.2"/><rect width="75" height="42.9" x="1245" y="357.1" fill="none" stroke="#aeb5bf" stroke-width="1.2"/><rect width="75" height="42.9" x="1170" y="314.3" fill="none" stroke="#aeb5bf" stroke-width="1.2"/><rect width="75" height="42.9" x="1245" y="314.3" fill="none" stroke="#aeb5bf" stroke-width="1.2"/><rect width="75" height="42.9" x="1170" y="271.4" fill="none" stroke="#aeb5bf" stroke-width="1.2"/><rect width="75" height="42.9" x="1245" y="271.4" fill="none" stroke="#aeb5bf" stroke-width="1.2"/><rect width="75" height="42.9" x="1170" y="228.6" fill="none" stroke="#aeb5bf" stroke-width="1.2"/><rect width="75" height="42.9" x="1245" y="228.6" fill="none" stroke="#aeb5bf" stroke-width="1.2"/><rect width="75" height="42.9" x="1170" y="185.7" fill="none" stroke="#aeb5bf" stroke-width="1.2"/><rect width="75" height="42.9" x="1245" y="185.7" fill="none" stroke="#aeb5bf" stroke-width="1.2"/><rect width="75" height="42.9" x="1170" y="142.9" fill="none" stroke="#aeb5bf" stroke-width="1.2"/><rect width="75" height="42.9" x="1245" y="142.9" fill="none" stroke="#aeb5bf" stroke-width="1.2"/><rect width="75" height="42.9" x="1170" y="100" fill="none" stroke="#aeb5bf" stroke-width="1.2"/><rect width="75" height="42.9" x="1245" y="100" fill="none" stroke="#aeb5bf" stroke-width="1.2"/><rect width="75" height="46" x="1245" y="54" fill="none" stroke="#aeb5bf" stroke-width="1.2"/><line x1="330" x2="1170" y1="775" y2="775" stroke="#7b828d" stroke-width="2"/><line x1="1245" x2="1245" y1="100" y2="700" stroke="#7b828d" stroke-width="2"/><line x1="330" x2="330" y1="700" y2="850" stroke="#7b828d" stroke-width="2.5"/><rect width="300" height="88" x="180" y="850" fill="#fff" stroke="#c6ccd4" stroke-width="3" rx="5"/><text x="330" y="903" fill="#2b3240" font-size="13" font-weight="800" letter-spacing="1" text-anchor="middle">PORTE-COCHÈRE</text><rect width="150" height="88" x="1170" y="850" fill="#fff" stroke="#c6ccd4" stroke-width="3" rx="5"/><text x="1245" y="903" fill="#2b3240" font-size="13" font-weight="800" letter-spacing="1" text-anchor="middle">CANOPY</text><rect width="147" height="26" x="998" y="174" fill="#1f3864" rx="5"/><text x="1072" y="192" fill="#fff" font-size="12" font-weight="700" letter-spacing="1.2" text-anchor="middle">BACK ENTRANCE</text><rect width="147" height="26" x="686" y="954" fill="#1f3864" rx="5"/><text x="760" y="972" fill="#fff" font-size="12" font-weight="700" letter-spacing="1.2" text-anchor="middle">MAIN ENTRANCE</text><g transform="translate(1462,905)"><circle r="27" fill="#fff" stroke="#7b828d" stroke-width="2"/><path fill="#2b3240" d="M0 -18 L10 14 L0 6 L-10 14 Z"/></g><text x="1462" y="958" fill="#fff" font-size="15" font-weight="800" text-anchor="middle">N</text></svg>